<svg t="1700635069497" class="icon" viewBox="0 0 1024 1024" version="1.1" xmlns="http://www.w3.org/2000/svg" p-id="7331" width="200" height="200"><path d="M173.92597962 454.10621027v437.00850367h209.88780509V652.39495246c0-8.48388603 6.89315739-15.35494995 15.37704342-15.35494996h234.3673512c8.50597947 0 15.3770434 6.87106393 15.37704341 15.35494996v238.71976148h187.79435195V452.69222927l-330.51805943-260.76902776-332.28553564 262.16091531z m-66.28035951 52.29520365l-54.34989479 42.86129914a22.09345317 22.09345317 0 0 1-31.01920825-3.66751322l-13.67584752-17.34336073a22.09345317 22.09345317 0 0 1 3.66751322-31.01920825l480.24539153-378.9248153a22.09345317 22.09345317 0 0 1 27.39588193 0l480.24539154 378.90272184a22.09345317 22.09345317 0 0 1 3.66751322 31.04130171l-13.69794097 17.34336073a22.09345317 22.09345317 0 0 1-31.01920825 3.66751322l-56.09527758-44.2531867v403.86832393a48.51722316 48.51722316 0 0 1-48.51722316 48.51722317H156.16284327a48.51722316 48.51722316 0 0 1-48.51722316-48.51722317V506.40141392z m342.44852411 373.66657344h132.56071901v-176.74762536h-132.56071901v176.74762536z" fill="#ff6b00" p-id="7332"></path></svg>